<svg width="379" height="375" viewBox="0 0 379 375" fill="none" xmlns="http://www.w3.org/2000/svg">
<path fill-rule="evenodd" clip-rule="evenodd" d="M189.5 375C294.158 375 379 291.053 379 187.5C379 83.9466 294.158 0 189.5 0C84.842 0 0 83.9466 0 187.5C0 291.053 84.842 375 189.5 375ZM243.339 162.861C248.371 162.861 252.231 158.267 250.51 153.538C249.382 150.438 247.988 147.536 246.33 144.831C243.104 139.527 239.093 135.036 234.297 131.357C229.502 127.635 224.118 124.812 218.145 122.887C212.216 120.962 205.873 120 199.116 120C187.694 120 177.536 122.738 168.642 128.213C159.749 133.688 152.752 141.473 147.651 151.568C142.55 161.663 140 173.641 140 187.5C140 201.359 142.55 213.336 147.651 223.432C152.752 233.527 159.749 241.312 168.642 246.787C177.536 252.262 187.694 255 199.116 255C205.873 255 212.216 254.038 218.145 252.113C224.118 250.188 229.502 247.386 234.297 243.707C239.093 239.986 243.104 235.473 246.33 230.169C247.981 227.454 249.369 224.555 250.495 221.47C252.222 216.739 248.364 212.139 243.327 212.139C239.512 212.139 236.323 214.861 234.873 218.389C234.021 220.462 232.979 222.4 231.747 224.202C229.393 227.666 226.516 230.596 223.115 232.992C219.758 235.345 216.031 237.12 211.933 238.317C207.835 239.515 203.562 240.114 199.116 240.114C191.007 240.114 183.661 238.104 177.078 234.083C170.539 230.062 165.329 224.137 161.449 216.309C157.613 208.481 155.694 198.878 155.694 187.5C155.694 176.122 157.613 166.519 161.449 158.691C165.329 150.863 170.539 144.938 177.078 140.917C183.661 136.896 191.007 134.886 199.116 134.886C203.562 134.886 207.835 135.485 211.933 136.682C216.031 137.88 219.758 139.677 223.115 142.072C226.516 144.425 229.393 147.334 231.747 150.798C232.982 152.583 234.027 154.516 234.88 156.596C236.33 160.131 239.518 162.861 243.339 162.861ZM350.96 155.239C346.573 155.239 343.089 151.804 340.841 148.037C339.109 145.135 336.532 142.693 333.11 140.712C327.155 137.265 319.851 135.542 311.198 135.542C304.871 135.542 299.335 136.444 294.589 138.25C289.891 140.056 286.215 142.538 283.564 145.698C280.958 148.858 279.656 152.448 279.656 156.47C279.656 159.835 280.563 162.728 282.377 165.149C284.238 167.529 286.611 169.519 289.495 171.119C292.38 172.679 295.404 173.971 298.567 174.997C301.731 175.982 304.638 176.782 307.29 177.398L321.805 180.845C325.527 181.706 329.667 182.896 334.226 184.415C338.832 185.933 343.228 188.005 347.415 190.632C351.649 193.217 355.138 196.541 357.883 200.603C360.628 204.666 362 209.652 362 215.561C362 222.372 359.976 228.528 355.929 234.027C351.928 239.525 346.066 243.896 338.344 247.137C330.667 250.379 321.34 252 310.36 252C300.126 252 291.263 250.543 283.773 247.63C276.329 244.716 270.468 240.654 266.188 235.442C264.013 232.765 262.323 229.865 261.118 226.744C259.231 221.855 263.487 217.284 268.727 217.284C273.344 217.284 276.944 220.988 279.19 225.022C280.019 226.51 281.058 227.87 282.308 229.102C285.518 232.18 289.565 234.478 294.45 235.996C299.381 237.473 304.685 238.212 310.36 238.212C316.967 238.212 322.898 237.268 328.155 235.381C333.412 233.452 337.576 230.785 340.646 227.379C343.717 223.932 345.252 219.91 345.252 215.314C345.252 211.129 343.926 207.723 341.274 205.097C338.623 202.47 335.133 200.336 330.807 198.695C326.48 197.054 321.805 195.617 316.78 194.386L299.195 189.955C288.03 187.123 279.191 183.081 272.678 177.829C266.164 172.576 262.908 165.703 262.908 157.208C262.908 150.15 265.071 143.995 269.398 138.742C273.771 133.449 279.633 129.345 286.983 126.432C294.38 123.477 302.638 122 311.756 122C320.967 122 329.155 123.457 336.32 126.37C343.484 129.243 349.16 133.182 353.347 138.188C355.505 140.74 357.143 143.468 358.262 146.372C360.046 151.004 355.924 155.239 350.96 155.239ZM31.2102 255C34.7055 255 37.8331 252.829 39.0555 249.555L51.2949 216.768H108.705L120.944 249.555C122.167 252.829 125.295 255 128.79 255C134.671 255 138.72 249.096 136.602 243.609L92.0688 128.277C90.1428 123.289 85.3468 120 80 120C74.6532 120 69.8572 123.289 67.9313 128.277L23.3982 243.609C21.2797 249.096 25.3287 255 31.2102 255ZM103.292 202.266L80.5546 141.357H79.4455L56.7085 202.266H103.292Z" fill="#FAE9E9" />
</svg>
